<svg id="Capa_1" height="512" width="512" version="1.1" xmlns="http://www.w3.org/2000/svg"><g id="g386" transform="translate(-82.803 -247.044) scale(1.85218)" clip-rule="evenodd" fill="#fff" fill-rule="evenodd"><path id="Shape" d="M86.635 277.69a1.627 1.627 0 01-1.864.189c-2.618-2.178-3.092-3.183-4.517-5.257-4.335 4.412-7.4 5.731-13.005 5.731-6.639 0-11.804-4.098-11.804-12.293 0-6.401 3.49-10.75 8.377-12.887 4.279-1.878 10.255-2.22 14.827-2.736v-1.019c0-1.878.146-4.098-.956-5.724-.963-1.452-2.792-2.046-4.426-2.046-3.009 0-5.689 1.543-6.346 4.733a1.654 1.654 0 01-1.396 1.452l-7.581-.831a1.396 1.396 0 01-1.173-1.648c1.752-9.271 10.129-12.07 17.634-12.07 3.839 0 8.852 1.019 11.867 3.923 3.832 3.588 3.49 8.377 3.49 13.578v12.279c0 3.7 1.536 5.319 2.981 7.309.503.698.614 1.571 0 2.094a302.114 302.114 0 00-6.046 5.236zm-7.951-19.225c0 3.072.07 5.634-1.473 8.377-1.257 2.22-3.246 3.588-5.466 3.588-3.023 0-4.789-2.304-4.789-5.724 0-6.716 6.024-7.937 11.728-7.937v1.71z"/><path id="Path_00000135672953620628725280000005477982567796944295_" d="M108.233 277.383h-7.881a1.48 1.48 0 01-1.396-1.334V235.56a1.494 1.494 0 011.508-1.445h7.351a1.48 1.48 0 011.396 1.396v5.285h.147c1.913-5.117 5.522-7.497 10.381-7.497s8.021 2.38 10.234 7.497a11.643 11.643 0 0120.056-3.107c2.506 3.407 1.99 8.377 1.99 12.691v25.543a1.49 1.49 0 01-1.522 1.46h-7.881a1.474 1.474 0 01-1.396-1.452v-21.459c0-1.703.146-5.962-.223-7.581-.586-2.723-2.353-3.49-4.635-3.49a5.236 5.236 0 00-4.712 3.316c-.81 2.052-.74 5.452-.74 7.756v21.452a1.485 1.485 0 01-1.515 1.459h-7.902a1.48 1.48 0 01-1.396-1.452v-21.459c0-4.517.698-11.169-4.887-11.169-5.585 0-5.445 6.471-5.445 11.169v21.452a1.49 1.49 0 01-1.522 1.46h-.01z"/><path d="M196.101 270.346c-1.445-1.989-2.981-3.609-2.981-7.302v-12.286c0-5.208.37-9.99-3.49-13.578-3.023-2.904-8.035-3.923-11.867-3.923-7.504 0-15.881 2.792-17.641 12.07a1.4 1.4 0 001.18 1.655l7.644.824a1.66 1.66 0 001.396-1.452c.663-3.19 3.33-4.733 6.339-4.733 1.627 0 3.49.6 4.426 2.052 1.11 1.62.963 3.84.963 5.717v.998c-4.572.51-10.555.852-14.827 2.73-4.942 2.136-8.412 6.485-8.412 12.894 0 8.189 5.166 12.286 11.805 12.286 5.585 0 8.67-1.319 12.998-5.731 1.438 2.094 1.906 3.079 4.524 5.257a1.639 1.639 0 001.864-.182 337.74 337.74 0 016.045-5.236c.676-.482.565-1.334.034-2.06zm-15.497-3.539c-1.25 2.213-3.246 3.581-5.459 3.581-3.023 0-4.789-2.304-4.789-5.717 0-6.723 6.024-7.937 11.728-7.937v1.703c-.001 3.078.055 5.633-1.48 8.37z" id="path6"/><path d="M202.775 241.208v-5.787a1.396 1.396 0 011.473-1.459h25.92a1.446 1.446 0 011.494 1.459v4.963c0 .831-.698 1.92-1.948 3.637l-13.431 19.169c4.984-.119 10.255.628 14.785 3.176a2.637 2.637 0 011.396 2.255v6.199c0 .852-.928 1.836-1.913 1.326a29.85 29.85 0 00-27.386.049c-.9.482-1.843-.489-1.843-1.34v-5.899a6.983 6.983 0 01.963-3.972l15.56-22.339h-13.571a1.446 1.446 0 01-1.501-1.459v.022z" id="path8"/><path d="M254.042 241.501c-5.815 0-6.185 7.916-6.185 12.859 0 4.942-.07 15.497 6.108 15.497s6.408-8.517 6.408-13.71c0-3.407-.147-7.497-1.18-10.73-.886-2.792-2.652-3.916-5.151-3.916zm-.077-8.265c11.707 0 18.038 10.052 18.038 22.827 0 12.349-6.981 22.143-18.038 22.143-11.483 0-17.738-10.052-17.738-22.569s6.331-22.401 17.738-22.401z" id="path10"/><path d="M287.263 277.299h-7.86a1.474 1.474 0 01-1.396-1.452v-40.489a1.486 1.486 0 011.515-1.326h7.316a1.487 1.487 0 011.396 1.131v6.192h.154c2.206-5.536 5.298-8.175 10.743-8.175 3.532 0 6.981 1.278 9.208 4.768 2.059 3.239 2.059 8.691 2.059 12.607v25.473a1.502 1.502 0 01-1.515 1.271h-7.93a1.474 1.474 0 01-1.396-1.271v-21.983c0-4.426.517-10.904-4.935-10.904a5.18 5.18 0 00-4.565 3.239c-1.103 2.471-1.249 4.942-1.249 7.679v21.787a1.508 1.508 0 01-1.536 1.452h-.009z" id="path12"/><path d="M213.469 293.257c-14.806 10.925-36.3 16.754-54.758 16.754a99.075 99.075 0 01-66.876-25.515c-1.396-1.25-.154-2.96 1.515-1.99 19.044 11.078 42.583 17.752 66.918 17.752a133.236 133.236 0 0051.051-10.471c2.499-1.061 4.6 1.647 2.15 3.49zm6.157-7.009c1.899 2.422-2.094 12.419-3.888 16.88-.545 1.347.621 1.892 1.843.873 7.937-6.646 9.99-20.565 8.377-22.576-1.612-2.01-15.497-3.714-23.972 2.241-1.305.914-1.082 2.178.37 2.003 4.768-.572 15.393-1.85 17.285.579z" id="path20"/></g></svg>