<svg xmlns="http://www.w3.org/2000/svg" id="Layer_1" height="512" width="512" version="1.1"><path d="M457.309 209.511c0-107.88-90.129-195.334-201.309-195.334-111.18 0-201.309 87.454-201.309 195.334 0 106.489 87.82 193.075 197.017 195.291 2.391.048 4.292 2.03 4.292 4.425v84.407c0 3.48 3.815 5.604 6.761 3.759 34.18-21.402 186.628-125.08 194.146-276.042.24-3.92.402-7.86.402-11.84z" fill="#000" id="path2" fill-opacity="0" stroke="#fefdff" stroke-width="28.353" stroke-miterlimit="4" stroke-dasharray="none" stroke-opacity="1"/><g id="g884" transform="translate(129.809 90.348) scale(.49293)" fill="#fff" fill-opacity="1"><path d="M60.273 318.582L46.2 338.684a14.95 14.95 0 00-2.086 4.332L30.59 388.484a14.982 14.982 0 005.77 16.559 14.985 14.985 0 0017.535-.238l37.925-28.133c-18.41-13.031-30.558-34.106-31.547-58.09zm0 0" id="path852"/><path d="M497 180.516h-45.004v224.996c0 11.152 11.734 18.406 21.711 13.418l32.227-23.903A14.999 14.999 0 00512 382.98V195.516c0-8.286-6.715-15-15-15zm0 0" id="path854"/><path d="M299.41 3.219c-6.793-4.758-16.137-3.11-20.894 3.683l-25.813 36.864 49.152 34.418 25.813-36.864c4.758-6.793 3.11-16.136-3.684-20.894zm0 0" id="path856"/><path d="M112.195 244.434c7.227-2.325 14.785-3.918 22.774-3.918h53.219l96.46-137.758-49.152-34.418zm0 0" id="path858"/><path d="M107.445 118.078a44.808 44.808 0 00-20.07 17.152L4.707 265.395c-10.36 20.73-3.008 45.558 16.074 57.816.348-.547.461-1.191.832-1.723L182.875 91.176c-6.02-.364-12.172.02-18.371 2.113zm0 0" id="path860"/><path d="M119.969 389.012v9.02c0 12.425 10.074 22.5 22.504 22.5 12.425 0 22.5-10.075 22.5-22.5v-7.5h-30.004a75.085 75.085 0 01-15-1.52zm0 0" id="path862"/><path d="M194.977 390.531v7.5c0 12.426 10.074 22.5 22.5 22.5 11.007 0 19.746-8.058 21.695-18.504-4.887-2.023-9.852-3.851-14.59-6.195l-10.402-5.305h-19.203zm0 0" id="path864"/><path d="M421.992 180.516h-27.531l-95.324-46.153-73.399 104.832c18.25-2.836 35.504-11.148 48.637-24.285 5.86-5.86 15.355-5.86 21.215 0 5.86 5.86 5.86 15.356 0 21.215-21.86 21.855-52.125 34.398-83.035 34.398h-77.582c-24.032 0-45.004 19.516-45.004 45 0 24.907 20.101 45.004 45.004 45.004h86.406c7.203 2.817 47.281 30.004 108.61 30.004 31.038 0 64.03-7.254 92.003-20.707zm0 0" id="path866"/></g></svg>