<svg version="1.1" id="Capa_1" xmlns="http://www.w3.org/2000/svg" x="0" y="0" viewBox="0 0 512 512" xml:space="preserve"><path d="M512 256c0 12.298-.867 24.398-2.55 36.227C491.854 416.454 385.087 512 256 512 135.032 512 33.667 428.105 6.917 315.319 2.393 296.281 0 276.417 0 256c0-18.045 1.87-35.662 5.423-52.652h.01C29.696 87.218 132.66 0 256 0c132.901 0 242.145 101.272 254.777 230.86v.01A255.993 255.993 0 01512 256z" fill="#f0efeb"/><path d="M54.774 189.837c-22.497 0-38.285 5.496-49.34 13.511h-.01A256.981 256.981 0 000 256c0 20.417 2.393 40.281 6.917 59.319 10.574 6.99 25.328 11.776 45.923 11.776 65.735 0 68.629-41.566 68.629-41.566H91.512s-5.799 22.235-38.672 21.264c-41.556 0-43.489-41.556-43.489-41.556h115.984c.972 0 9.666-75.4-70.561-75.4zm-44.461 56.059s1.933-36.728 43.499-36.728 41.566 36.728 41.566 36.728H10.313z" fill="#e82f31"/><path d="M209.428 190.807c-36.729 0-50.262 21.265-50.262 21.265V139.58h-32.863l.967 153.684s0 20.298-.967 29.964h28.03l.967-17.399s13.531 21.265 52.195 21.265 69.592-24.164 70.559-67.659c0-43.497-32.863-68.628-68.626-68.628zm-8.699 116.954c-45.428.967-45.428-48.329-45.428-48.329s-1.933-47.361 45.428-48.329c46.395-.967 45.428 49.295 45.428 49.295s0 46.397-45.428 47.363z" fill="#0061d5"/><path d="M410.472 292.296c0-20.298.967-37.696 0-50.262-.967-14.498.967-51.228-61.86-54.128 0 0-59.927-.967-66.693 37.696h30.93s1.933-19.332 33.83-18.365c29.964.967 34.796 15.464 34.796 33.83 0 0-25.131.967-33.83.967-15.464 0-68.626 1.933-73.458 34.796-5.799 38.662 28.03 50.262 55.094 50.262s42.528-7.732 54.128-22.231l.967 18.365h27.064c-.001-.967-.968-10.632-.968-30.93zm-76.358 16.432s-28.997 0-30.93-23.198c-1.933-25.131 44.461-23.198 44.461-23.198h32.863c.968 0 6.767 47.362-46.394 46.396z" fill="#f7b000"/><path d="M512 256c0 12.298-.867 24.398-2.55 36.227l-40.981 79.329h-32.862l26.091-48.327-66.696-125.659h33.834l49.298 98.597 32.643-65.296A255.958 255.958 0 01512 256z" fill="#85ba00"/></svg>