<svg version="1.1" id="Capa_1" xmlns="http://www.w3.org/2000/svg" x="0" y="0" viewBox="0 0 512 512" xml:space="preserve"><circle cx="256" cy="256" r="256" fill="#ff6838"/><path d="M511.151 235.151L397.95 123.05l-284.075 74.913 66.663 66.236-10.375-.164-62.698-62.698v6.454l6.887 55.362 64.545 64.112-9.778.263-61.655-61.484.001 5.424 8.064 57.493 45.972 45.668-7.114 2.948-46.922-46.815-.001 6.425 8.065 56.493 117.819 117.311A259.03 259.03 0 00256 512c141.385 0 256-114.615 256-256 0-7.02-.294-13.971-.849-20.849z" fill="#ae4e32"/><path d="M256 90.664l-.24.001h-.093c-81.88.056-148.202 20.611-148.202 45.961v47.945c0 25.384 66.502 45.962 148.535 45.962s148.535-20.578 148.535-45.962v-47.945c0-25.384-66.501-45.962-148.535-45.962z" fill="#e0e0e0"/><ellipse cx="256" cy="136.63" rx="148.53" ry="45.962" fill="#fff"/><path d="M256 90.664l-.333.001v91.921l.333.001c82.034 0 148.535-20.578 148.535-45.962 0-25.383-66.501-45.961-148.535-45.961z" fill="#e0e0e0"/><path d="M256 182.588l-.333-.001v47.945l.333.001c82.034 0 148.535-20.578 148.535-45.962v-47.945c0 25.384-66.501 45.962-148.535 45.962z" fill="silver"/><path d="M107.465 249.283c0 25.384 66.502 45.962 148.535 45.962s148.535-20.578 148.535-45.962v-47.945c0 25.384-66.502 45.962-148.535 45.962s-148.535-20.578-148.535-45.962v47.945z" fill="#e0e0e0"/><path d="M256 247.3l-.333-.001v47.945l.333.001c82.034 0 148.535-20.578 148.535-45.962v-47.945c0 25.384-66.501 45.962-148.535 45.962z" fill="silver"/><path d="M107.465 313.995c0 25.384 66.502 45.962 148.535 45.962s148.535-20.578 148.535-45.962V266.05c0 25.384-66.502 45.962-148.535 45.962s-148.535-20.578-148.535-45.962v47.945z" fill="#e0e0e0"/><path d="M256 312.012l-.333-.001v47.945l.333.001c82.034 0 148.535-20.578 148.535-45.962V266.05c0 25.384-66.501 45.962-148.535 45.962z" fill="silver"/><path d="M107.465 378.708c0 25.384 66.502 45.962 148.535 45.962s148.535-20.578 148.535-45.962v-47.945c0 25.384-66.502 45.962-148.535 45.962s-148.535-20.578-148.535-45.962v47.945z" fill="#e0e0e0"/><path d="M256 376.724l-.333-.001v47.945l.333.001c82.034 0 148.535-20.578 148.535-45.962v-47.945c0 25.384-66.501 45.962-148.535 45.962z" fill="silver"/></svg>