<svg id="Capa_1" height="512" width="512" xmlns="http://www.w3.org/2000/svg"><path d="M34.909 448.047h81.455V250.229l-53.338-93.138L0 162.956v250.182c0 19.287 15.622 34.909 34.909 34.909z" fill="#0085f7"/><path d="M395.636 448.047h81.455c19.287 0 34.909-15.622 34.909-34.909V162.956l-62.935-5.865-53.428 93.138v197.818z" fill="#00a94b"/><path d="M395.636 98.956l-47.847 91.303 47.847 59.97L512 162.956v-46.545c0-43.142-49.251-67.782-83.782-41.891z" fill="#ffbc00"/><path clip-rule="evenodd" d="M116.364 250.229l-45.593-96.31 45.593-54.963L256 203.683 395.636 98.956v151.273L256 354.956z" fill="#ff4131" fill-rule="evenodd"/><path d="M0 116.411v46.545l116.364 87.273V98.956L83.782 74.52C49.251 48.629 0 73.269 0 116.411z" fill="#e51c19"/></svg>