<svg id="Capa_1" height="512" width="512" xmlns="http://www.w3.org/2000/svg"><path d="M512 256c0 69.904-28.024 133.277-73.446 179.472C392.108 482.711 327.471 512 256 512c-71.481 0-136.119-29.299-182.565-76.539C28.014 389.266 0 325.904 0 256S28.014 122.734 73.435 76.539c21.901-22.277 47.846-40.563 76.643-53.666C182.356 8.182 218.216 0 256 0c141.385 0 256 114.615 256 256z" fill="#5c5560"/><path d="M438.554 146.275v289.196C392.108 482.711 327.471 512 256 512c-71.481 0-136.119-29.299-182.565-76.539V55.118c0-17.805 14.43-32.246 32.246-32.246h209.492z" fill="#7244bf"/><path d="M438.557 146.277v103.422L330.054 141.196l11.316-13.967z" fill="#6339b4"/><path d="M438.557 146.277h-91.139c-17.808 0-32.243-14.436-32.243-32.243V22.877z" fill="#b7a1df"/><g fill="#f2f2f2"><path d="M224.256 261.12h123.81v25.076h-123.81z"/><circle cx="180.37" cy="273.659" r="16.456"/><path d="M224.256 317.544h123.81v25.076h-123.81z"/><circle cx="180.37" cy="330.083" r="16.456"/><path d="M224.256 373.959h123.81v25.076h-123.81z"/><circle cx="180.37" cy="386.497" r="16.456"/></g></svg>