<svg height="512" viewBox="0 0 152 152" width="512" version="1.1" id="svg27" xmlns="http://www.w3.org/2000/svg"><linearGradient id="linear-gradient" gradientUnits="userSpaceOnUse" x1="22.26" x2="129.74" y1="22.26" y2="129.74" gradientTransform="translate(9.697 4.877)"><stop offset="0" stop-color="#fae100" id="stop2"/><stop offset=".15" stop-color="#fcb720" id="stop4"/><stop offset=".3" stop-color="#ff7950" id="stop6"/><stop offset=".5" stop-color="#ff1c74" id="stop8"/><stop offset="1" stop-color="#6c1cd1" id="stop10"/></linearGradient><g id="Layer_2" data-name="Layer 2"><g id="Icon" transform="translate(-55.223 -55.223) scale(1.72662)" fill="#fff"><path d="M94 36H58a22 22 0 00-22 22v36a22 22 0 0022 22h36a22 22 0 0022-22V58a22 22 0 00-22-22zm15 54.84A18.16 18.16 0 0190.84 109H61.16A18.16 18.16 0 0143 90.84V61.16A18.16 18.16 0 0161.16 43h29.68A18.16 18.16 0 01109 61.16z" id="path15"/><path d="M90.59 61.56l-.19-.19-.16-.16A20.16 20.16 0 0076 55.33 20.52 20.52 0 0055.62 76a20.75 20.75 0 006 14.61 20.19 20.19 0 0014.42 6 20.73 20.73 0 0014.55-35.05zM76 89.56A13.56 13.56 0 1189.37 76 13.46 13.46 0 0176 89.56z" id="path17"/><path d="M102.43 54.38a4.88 4.88 0 01-4.85 4.92 4.81 4.81 0 01-3.42-1.43 4.93 4.93 0 013.43-8.39 4.82 4.82 0 013.09 1.12l.1.1a3.05 3.05 0 01.44.44l.11.12a4.92 4.92 0 011.1 3.12z" id="path19"/></g></g></svg>