<svg xmlns="http://www.w3.org/2000/svg" height="511pt" viewBox="-25 0 511 512" width="511pt" version="1.1" id="svg12"><path d="M450.512 301.574C450.512 412.266 352.008 502 230.504 502 109.004 502 10.5 412.266 10.5 301.574c0-64.172 33.102-121.293 84.602-157.984 18.921 15.48 46.87 25.742 86.804 14.43-3.32 7.46-37.672 34.71-40.152 85.304 19.059-22.39 32.93-24.562 43.11-28.203 7.023-2.508 42.28-19.898 42.28-37.309h.09c0 17.41 26.493 26.032 33.512 28.54 10.18 3.64 32.82-2.97 51.883 19.421-2.48-50.593-36.832-70.351-40.152-77.812 39.109 11.07 66.722 3.219 85.62-9.691 55.942 36.351 92.415 95.945 92.415 163.304zm0 0" fill="#b71c1c" id="path2" fill-opacity="0"/><path d="M338.34 104.008c-38.973-17.418-81.254-8.297-81.254-8.297h-13.531c-13.149-34.133-38.961-81.254-61.012-85.324-21.828-4.032-22.777 23.312-11.11 40.793 7.79 11.648 17.27 29.14 25.122 44.39-5.809-1.11-44.57-7.632-80.5 8.438C78.102 120.96 61.383 93.89 60.53 92.46c.48 1.59 9.79 30.84 34.57 51.129 18.922 15.48 46.872 25.742 86.805 14.43-3.32 7.46-37.672 34.71-40.152 85.304 19.059-22.39 32.93-24.562 43.11-28.203 7.023-2.508 42.28-19.898 42.28-37.309h.09c0 17.41 26.493 26.032 33.512 28.54 10.18 3.64 32.82-2.97 51.883 19.421-2.48-50.593-36.832-70.351-40.152-77.812 39.109 11.07 66.722 3.219 85.62-9.691 25.762-17.598 35.344-44.59 35.762-45.833-.687 1.16-17.379 28.614-55.52 11.57-38.972-17.417 38.141 17.044 0 0zm-138.516-.93l-2.84-6.539c.563 1.242 1.602 3.59 2.903 6.531 3.289 7.43 8.218 18.64 11.02 25.41zm0 0" fill="#2e7d32" id="path4" fill-opacity="0"/><path d="M433.941 203.293c-14.562-25.18-34.832-47.64-59.113-65.582C395.23 119 402.961 96.73 403.332 95.648c1.637-4.84-.64-10.12-5.281-12.27-4.63-2.14-10.153-.429-12.781 3.95-.97 1.602-7.942 12.211-23.47 12.211-5.39 0-11.82-1.281-19.382-4.66-38.352-17.14-78.953-10.57-86.32-9.168h-5.793C241.668 64.949 214.684 6.148 184.363.559c-10.918-2.024-20.277 1.507-25.668 9.687-6.562 9.973-7.152 29.14 4.43 46.492 4.29 6.422 9.648 15.532 15.77 26.79-17.141-.868-42.48.421-66.922 11.35-29.34 13.102-41.551-5.378-42.84-7.53-2.582-4.34-8-6.078-12.633-4.04a9.998 9.998 0 00-5.54 12.04c.36 1.191 8.071 26.152 28.59 47.453-22.628 18.05-41.448 40.21-54.84 64.672C8.649 236.843.5 268.503.5 301.574c0 56.383 24.04 109.344 67.703 149.113C111.602 490.23 169.246 512 230.503 512c61.263 0 118.907-21.77 162.306-61.313 43.664-39.769 67.703-92.73 67.703-149.113 0-34.242-9.192-68.222-26.57-98.281zm-313.808-90.152c27.531-12.313 57.41-10.153 69.441-8.551l1.082 2.469v.02l11.078 25.401c2.2 5.032 8.032 7.352 13.082 5.2a9.984 9.984 0 005.329-13.02c-2.75-6.648-7.56-17.61-11.11-25.629-1.32-2.98-2.37-5.351-2.941-6.613a4.97 4.97 0 00-.2-.41 9.848 9.848 0 00-.449-1.02c-10.289-20-18.941-35.261-25.691-45.36-6.371-9.53-6.82-20.62-4.348-24.382.348-.527 1.18-1.789 5.328-1.027 13.66 2.527 37.66 38 53.493 79.082a10 10 0 009.328 6.41h13.53c.7 0 1.411-.082 2.09-.223.2-.039 10.403-2.129 25.012-2.129 14.22 0 32.63 1.98 50.07 9.782 11.903 5.32 22.134 6.84 30.653 6.328-3.582 3.691-7.71 7.3-12.453 10.543-20.738 14.168-46.73 16.968-77.262 8.328a9.996 9.996 0 00-10.277 3.07 10.02 10.02 0 00-1.582 10.621c1.531 3.418 4.281 6.14 8.46 10.27 7.673 7.57 20.31 20.07 26.821 40.82-10.05-4.258-19.582-4.84-26.422-5.258-3.257-.203-6.629-.41-8.078-.93l-.98-.34c-22.54-7.96-25.903-15.183-25.903-18.78 0-5.52-4.57-10-10.09-10s-10 4.48-10 10c0 8.59-25.308 24.199-35.648 27.89-1.191.43-2.441.828-3.742 1.258-5.79 1.883-12.75 4.133-20.89 9.34 6.972-20.899 19.25-35.32 26.84-44.211 3.632-4.27 6.03-7.078 7.339-10a10.02 10.02 0 00-1.578-10.617 10.01 10.01 0 00-7.559-3.453c-.91 0-1.832.12-2.73.382-30.762 8.707-56.914 4.489-77.735-12.55h-.007c-6.282-5.153-11.461-10.942-15.692-16.653 9.38 1.27 20.809.012 34.39-6.058 27.532-12.313-13.581 6.07 0 0zM230.503 492C114.712 492 20.5 406.578 20.5 301.574c0-56.531 27.07-109.183 74.543-145.512 14.055 9.711 30.52 15.29 47.543 16.446 5.039.34 10.101.312 15.137-.035-11.278 15.308-24.399 38.558-25.961 70.359a10.017 10.017 0 006.312 9.793 10.022 10.022 0 008.32-.441c.32-.172.622-.36.918-.551a10.429 10.429 0 002.051-1.828c14.832-17.41 25.32-20.82 34.57-23.82 1.481-.481 2.883-.942 4.301-1.442.34-.129 24.692-9.93 38.903-25.23 9.508 9.128 23.281 14 29.34 16.14l.898.32c4.133 1.47 8.723 1.75 13.594 2.051 10.758.66 22.957 1.41 34.05 14.43a10 10 0 0011.29 2.82 10.008 10.008 0 006.308-9.793c-1.418-29.008-12.55-48.969-23.101-62.3 15.812 1.109 31.894-.864 46.605-6.934 4.059-1.676 8.027-3.61 11.809-5.848 24.308 16.871 44.52 38.582 58.699 63.102 15.621 27.023 23.883 57.543 23.883 88.273C440.512 406.578 346.297 492 230.504 492zm0 0" id="path6" fill="#fff" fill-opacity=".987"/><path d="M230.504 471.914C127.94 471.914 44.5 395.5 44.5 301.574c0-5.523 4.477-10 10-10s10 4.477 10 10c0 82.899 74.469 150.34 166.004 150.34 5.523 0 10.004 4.477 10.004 10s-4.48 10-10.004 10zm0 0" id="path8" fill="#fff" fill-opacity="1"/><path d="M271.84 467.52c-5.524 0-10.008-4.477-10.008-10 0-5.524 4.473-10 9.996-10h.012c5.523 0 10 4.476 10 10 0 5.523-4.477 10-10 10zm0 0" id="path10" fill="#fff" fill-opacity="1"/></svg>