<svg xmlns="http://www.w3.org/2000/svg" x="0" y="0" width="30" height="30" viewBox="0 0 192 192" version="1.1" id="svg17" fill="#000"><g style="mix-blend-mode:normal" id="original-icon" font-family="none" fill="#fff" fill-rule="nonzero" stroke="none" stroke-width="1" stroke-linecap="butt" stroke-linejoin="miter" stroke-miterlimit="10" stroke-dasharray="none" stroke-dashoffset="0" fill-opacity="1"><path id="path4" d="M95.9 6.313a6.4 6.4 0 00-6.3 6.487v6.912C67.9 22.828 51.2 41.438 51.2 64v6.4h32c0-3.533 2.867-6.4 6.4-6.4h12.8c3.533 0 6.4 2.867 6.4 6.4h32V64c0-22.562-16.7-41.173-38.4-44.288V12.8a6.4 6.4 0 00-6.5-6.488zM76.8 44.8c3.533 0 6.4 2.867 6.4 6.4 0 3.533-2.867 6.4-6.4 6.4a6.402 6.402 0 01-6.4-6.4c0-3.533 2.867-6.4 6.4-6.4zm38.4 0c3.533 0 6.4 2.867 6.4 6.4 0 3.533-2.867 6.4-6.4 6.4a6.402 6.402 0 01-6.4-6.4c0-3.533 2.867-6.4 6.4-6.4zM44.8 83.2c-14.063 0-25.6 11.537-25.6 25.6V128a6.4 6.4 0 1012.8 0v-19.2c0-7.147 5.653-12.8 12.8-12.8v38.4c0 7.072 5.728 12.8 12.8 12.8h76.8c7.072 0 12.8-5.728 12.8-12.8V96c7.147 0 12.8 5.653 12.8 12.8V128a6.4 6.4 0 1012.8 0v-19.2c0-14.063-11.537-25.6-25.6-25.6zm32 76.8v6.4c0 7.072 5.728 12.8 12.8 12.8h12.8c7.072 0 12.8-5.728 12.8-12.8V160z" fill="#fff" fill-opacity="1"/></g><path style="mix-blend-mode:normal" id="path7" d="M0 192V0h192v192z" font-family="none" fill="none" fill-rule="nonzero" stroke="none" stroke-width="1" stroke-linecap="butt" stroke-linejoin="miter" stroke-miterlimit="10" stroke-dasharray="none" stroke-dashoffset="0"/><path style="mix-blend-mode:normal" id="path9" d="M3.84 188.16V3.84h184.32v184.32z" font-family="none" fill="none" fill-rule="nonzero" stroke="none" stroke-width="1" stroke-linecap="butt" stroke-linejoin="miter" stroke-miterlimit="10" stroke-dasharray="none" stroke-dashoffset="0"/><path style="mix-blend-mode:normal" id="path11" d="M96 192c-53.02 0-96-42.98-96-96S42.98 0 96 0s96 42.98 96 96-42.98 96-96 96z" font-family="none" fill="none" fill-rule="nonzero" stroke="none" stroke-width="1" stroke-linecap="butt" stroke-linejoin="miter" stroke-miterlimit="10" stroke-dasharray="none" stroke-dashoffset="0"/><path style="mix-blend-mode:normal" id="path13" d="M96 188.16c-50.899 0-92.16-41.261-92.16-92.16C3.84 45.101 45.101 3.84 96 3.84c50.899 0 92.16 41.261 92.16 92.16 0 50.899-41.261 92.16-92.16 92.16z" font-family="none" fill="none" fill-rule="nonzero" stroke="none" stroke-width="1" stroke-linecap="butt" stroke-linejoin="miter" stroke-miterlimit="10" stroke-dasharray="none" stroke-dashoffset="0"/></svg>