<svg id="svg" version="1.1" width="400" height="400" xmlns="http://www.w3.org/2000/svg" display="block"><g id="svgg" stroke="none" fill-rule="evenodd"><path id="path4" d="M201.2 45.257c-8.342.861-17.361 2.78-15.8 3.361 2.348.874 8.707 3.633 10.777 4.675l2.378 1.197 4.685-.445c31.876-3.026 65.253 8.178 86.937 29.184 4.328 4.193 4.61 4.389 8.054 5.598 1.963.69 5.225 1.956 7.249 2.813 4.383 1.858 4.32 1.85 3.45.46-19.696-31.484-65.133-51.24-107.73-46.843m-37.4 9.379c-17.422 6.839-38.691 19.828-52.591 32.119-17.664 15.619-29.228 34.512-35.53 58.045-1.556 5.812-1.812 5.738 3.403.979 7.689-7.017 8.118-7.433 8.118-7.865 0-1.78 6.515-15.543 10.014-21.153 15.328-24.58 48.99-48.299 82.532-58.154l4.454-1.309-1.6-.674c-2.601-1.096-11.993-4.226-12.621-4.205-.318.01-3.099 1.008-6.179 2.217m44.8 24.184c-26.097 1.84-62.583 16.822-83.8 34.41-1.342 1.112-1.311 1.099 7.499-3.307 26.275-13.141 55.301-22.106 85.891-26.53 3.954-.571 7.232-1.082 7.284-1.134.052-.052-.932-.896-2.186-1.877l-2.281-1.782-3.804-.059c-2.092-.033-5.963.093-8.603.279m28.2 1.99c0 .215.66.39 1.467.39 1.714 0 1.656-.186-.167-.533-.747-.142-1.3-.081-1.3.143m10.012 10.006c1.119 1.572 1.912 2.04 5.788 3.419 22.776 8.103 47.746 29.66 62.948 54.346l2.452 3.981v12.64l-2.9-3.069c-11.497-12.168-26.469-23.382-38.01-28.47-.171-.075 1.232 2.985 3.117 6.8l3.426 6.937 3.768 2.6C299.084 158.063 316 174.507 316 177.801c0 4.253-6.008 20.507-10.52 28.459l-1.847 3.254 1.002 5.343a549.713 549.713 0 001.207 6.305c.661 3.105 11.26-16.571 15.386-28.562l1.514-4.4.862 2c2.562 5.947 3.95 11.904 4.333 18.6l.263 4.6 2.654-4.4c1.46-2.42 3.196-5.482 3.858-6.805l1.204-2.406-.919-3.594c-1.693-6.618-4.679-13.628-8.061-18.919-1.378-2.157-1.544-4.263-.553-7.021.497-1.383 5.93 13.638 8.579 23.719l1.32 5.025.897-1.757c1.413-2.77 4.421-10.784 4.421-11.779 0-2.709-6.094-18.329-11.014-28.229l-3.718-7.482-.465-4.776c-1.108-11.366-3.962-23.757-7.662-33.261-1.569-4.031-1.622-4.105-4.065-5.71-2.597-1.704-11.076-6.178-11.076-5.844 0 .107.973 2.05 2.162 4.317 2.62 4.995 5.315 11.733 7.168 17.922 1.608 5.37 2.755 10.257 2.29 9.752-.179-.193-1.832-2.241-3.673-4.549-11.285-14.152-29.035-28.917-43.506-36.191-2.633-1.323-6.68-1.786-15.768-1.801l-6.327-.011.866 1.216m-76.012 23.05c-15.076 1.06-35.993 4.58-41 6.899-12.446 5.766-34.763 21.383-45.853 32.088-8.096 7.815-13.825 27.364-12.877 43.936.231 4.033.832 5.406.969 2.211.028-.66.309.33.623 2.2 3.58 21.302 7.729 34.559 15.796 50.48 8.054 15.894 28.3 35.433 46.291 44.674l4.15 2.132 6.05-.266c66.859-2.934 116.013-23.811 151.662-64.416l2.169-2.47-.603-3.967a823.944 823.944 0 01-.845-5.667c-.317-2.239-.447-2.19-3.175 1.2-19.871 24.701-49.329 44.739-81.054 55.138-22.264 7.297-56.877 12.195-81.289 11.503l-4.97-.141-1.451-1.4c-27.746-26.766-45.358-69.226-45.389-109.428L80 174.144l2.843-4.972c5.778-10.106 10.798-16.49 20.789-26.44l7.498-7.467 4.946-1.609c50.547-16.445 108.438-14.463 151.024 5.171 4.009 1.848 4.001 2.012.252-4.738-3.785-6.818-3.158-6.223-8.585-8.138-26.605-9.386-60.369-14.025-87.967-12.085M345.225 200.2c-.014.22-1.482 3.1-3.261 6.4l-3.235 6 .439 3.4c1.418 10.996 1.819 28.576.875 38.4-3.632 37.799-15.838 59.377-40.679 71.917-2.076 1.048-2.803 1.74-4.993 4.755-1.409 1.94-4.005 5.013-5.767 6.828-3.674 3.783-3.673 3.784 1.857 1.861 31.924-11.097 49.404-32.213 56.096-67.761 3.797-20.169 3.933-42.282.395-64.17-.902-5.582-1.647-8.871-1.727-7.63m-12.473 21.741c-2.117 3.222-5.897 8.673-8.4 12.112-2.504 3.439-5.671 7.855-7.04 9.814-1.368 1.958-3.663 4.975-5.1 6.703-2.95 3.548-2.939 3.496-2.351 11.785l.261 3.678 1.177-1.117c8.706-8.257 17.439-20.892 21.49-31.088 1.845-4.645 4.619-16.979 3.96-17.605-.082-.078-1.881 2.495-3.997 5.718M61.784 226.2c.499 12.825 3.919 28.212 9.275 41.736 2.591 6.541 2.036 5.977 9.941 10.093 6.835 3.558 6.66 3.686 3.42-2.507-4.642-8.872-7.761-17.007-10.172-26.526-.729-2.882-1.696-5.264-3.446-8.495-1.338-2.47-3.744-7.418-5.348-10.996-1.603-3.578-3.13-6.955-3.393-7.505-.389-.812-.441-.02-.277 4.2m238.874 36.906c-.548.886-11.657 11.077-16.267 14.923-31.802 26.526-66.835 41.392-103.56 43.947l-5.369.373-4.631-2.104c-2.547-1.157-6.307-3.029-8.356-4.16-2.794-1.542-5.05-2.404-9.022-3.449-8.061-2.121-17.641-5.84-23.393-9.082-8.704-4.906 9.952 9.443 22.34 17.182l1.4.874-1.8-.237c-.99-.131-3.849-.589-6.354-1.018-2.504-.43-4.627-.708-4.716-.618-.376.376 8.967 6.754 14.438 9.857l2.369 1.343 8.231.258 8.232.259 6.044 2.257c19.843 7.414 43.411 11.734 66.402 12.175 12.852.246 12.818.251 20.901-3.533 5.975-2.797 15.17-9.182 12.453-8.647-.55.108-3.25.662-6 1.23-19.303 3.989-45.843 2.53-72.422-3.981l-6.155-1.508 6.589-1.276c34.284-6.64 66.777-23.539 95.443-49.639l3.656-3.328.261-5.102c.25-4.883-.072-8.035-.714-6.996M83.051 290.7c12.503 17.849 28.727 29.673 48.963 35.685 5.195 1.543 5.193 1.603.082-2.459-2.363-1.878-6.726-5.647-9.696-8.375-3.042-2.795-7.409-6.301-10-8.03-4.986-3.327-11.585-8.958-14.306-12.209-1.498-1.789-2.06-2.145-4.6-2.915-1.592-.483-4.866-1.669-7.277-2.637-2.41-.968-4.534-1.76-4.72-1.76-.186 0 .514 1.215 1.554 2.7" fill="#3c9"/><path id="path5" d="M125 38.866C66.329 45.489 36.035 99.63 48.647 175.325l1.054 6.325-2.406 4.875C26.848 227.956 39.54 268.33 78.8 286.742c5.417 2.541 19.624 7.582 23.296 8.267 1.291.24 1.995.881 5.126 4.661 9.269 11.191 25.01 25.445 36.306 32.877 30.755 20.234 71.963 30.218 103.472 25.069 44.398-7.255 64.137-36.603 62.842-93.435l-.264-11.618 3.111-3.595c5.94-6.864 13.43-16.95 20.029-26.968 2.1-3.19 3.95-5.89 4.108-6 .159-.11 1.097-1.73 2.083-3.6.987-1.87 2.995-5.65 4.463-8.4 18.026-33.78 12.809-71.879-13.26-96.822-8.389-8.026-16.522-12.749-31.001-18.001-2.358-.856-4.608-1.727-5-1.936-6.036-3.224-27.334-6.21-44.426-6.228L237.169 81l-2.284-2.161c-5.241-4.956-14.672-12.053-22.539-16.958-4.639-2.893-12.963-7.481-13.572-7.481-.218 0-1.427-.518-2.685-1.152-1.259-.633-4.089-1.909-6.289-2.835-2.2-.926-4.9-2.099-6-2.607-14.478-6.685-41.876-10.851-58.8-8.94m26.672 9.513c10.635 1.618 25.359 5.74 33.098 9.267 14.256 6.498 23.667 11.871 33.63 19.202 6.387 4.7 7.181 5.305 7.083 5.402-.057.057-3.339.572-7.293 1.143-30.269 4.378-58.864 13.161-85.401 26.234-3.993 1.967-7.428 3.472-7.634 3.345-.206-.127-.325-.062-.265.145.061.207-1.51 1.227-3.49 2.265-10.983 5.762-28.285 17.495-35.176 23.855-1.333 1.23-4.764 4.35-7.624 6.934-7.226 6.528-14.243 14.248-19.598 21.558l-1.998 2.728-.281-1.328c-2.722-12.879-2.289-39.738.898-55.652 9.32-46.544 46.563-72.322 94.051-65.098M262.2 89.992c13.365 1.376 25.956 4.256 36.628 8.379 2.295.886 4.308 1.613 4.474 1.616.166.003 1.786.747 3.6 1.653 25.961 12.967 41.478 41.64 37.752 69.76-2.453 18.508-10.107 34.457-27.837 58-7.574 10.057-8.199 10.77-8.328 9.496-.35-3.437-2.171-16.081-2.463-17.096-.19-.66-.828-3.99-1.418-7.4-4.166-24.072-12.581-50.271-22.613-70.4-2.138-4.29-4.619-9.33-5.512-11.2-5.453-11.411-22.488-35.873-28.055-40.286-.614-.487-1.416-1.342-1.782-1.9l-.664-1.014 6.309.011c3.47.006 7.929.177 9.909.381M238.217 94.5c7.72 8.119 13.642 15.59 20.056 25.3 2.47 3.74 4.831 7.25 5.247 7.8.979 1.295 6.88 11.869 6.88 12.328 0 .192 1.598 3.663 3.552 7.711 7.431 15.4 13.653 32.851 18.312 51.361 2.735 10.864 5.854 26.438 6.303 31.472.125 1.39.585 5.678 1.025 9.528.439 3.85.8 7.564.803 8.254.004 1.099-.834 2.071-6.769 7.851-53.219 51.827-121.623 65.962-168.147 34.748-26.561-17.82-43.264-42.096-51.229-74.453-6.32-25.675-2.31-51.956 9.697-63.547 30.781-29.713 83.771-53.51 135.453-60.831 15.785-2.236 14.128-2.454 18.817 2.478M63.174 180.266c-.271 1.724-.6 5.834-.733 9.134l-.241 6-1.321-5.4c-.726-2.97-1.403-5.683-1.504-6.029-.169-.579 3.825-7.304 4.147-6.982.079.078-.078 1.553-.348 3.277m-8.004 22.638c1.882 6.361 4.856 14.802 6.235 17.696.524 1.1 2.237 4.88 3.807 8.4 1.569 3.52 3.632 7.84 4.584 9.6a266.4 266.4 0 013.189 6.11c.802 1.6 2.547 4.658 3.88 6.794 1.332 2.136 3.319 5.671 4.415 7.855 3.162 6.301 7.748 14.429 11.124 19.716l3.112 4.874-3.258-1.216a353.808 353.808 0 00-5.429-1.977c-2.277-.799-9.312-4.405-11.732-6.014-20.965-13.943-30.156-31.788-28.239-54.826.752-9.035 5.491-26.447 6.391-23.482.162.531 1.026 3.443 1.921 6.47m245.844 73.382c-3.09 47.905-19.7 68.28-59.614 73.128-27.583 3.35-66.927-6.872-93-24.163-5.315-3.525-6.324-4.306-14.766-11.419-4.286-3.613-16.034-15.252-16.034-15.887 0-.899 2.412-.16 5.16 1.582 23.619 14.97 52.858 20.06 82.84 14.421 32.04-6.027 62.928-22.202 89.8-47.027l5.6-5.174.332 2.224c.21 1.405.093 5.941-.318 12.315" fill="#3f9"/></g></svg>