<svg id="Capa_1" height="512" width="512" xmlns="http://www.w3.org/2000/svg"><circle cx="256" cy="256" r="256"/><path d="M454.642 258.264c0-28.255-13.686-50.55-39.844-50.55-26.268 0-42.161 22.295-42.161 50.329 0 33.221 18.763 49.998 45.693 49.998 13.134 0 23.067-2.98 30.573-7.174v-22.074c-7.505 3.753-16.114 6.07-27.041 6.07-10.706 0-20.198-3.753-21.412-16.776h53.971c0-1.434.221-7.174.221-9.823zm-54.523-10.485c0-12.472 7.616-17.659 14.569-17.659 6.733 0 13.907 5.187 13.907 17.659zm-70.085-40.064c-10.816 0-17.77 5.077-21.633 8.609l-1.435-6.843h-24.281v128.692l27.593-5.85.11-31.235c3.973 2.87 9.823 6.953 19.535 6.953 19.756 0 37.747-15.893 37.747-50.881-.11-32.007-18.321-49.445-37.636-49.445zm-6.622 76.045c-6.512 0-10.375-2.318-13.024-5.187l-.11-40.947c2.87-3.201 6.843-5.408 13.134-5.408 10.044 0 16.997 11.258 16.997 25.716 0 14.789-6.843 25.826-16.997 25.826zm-78.694-82.557l27.703-5.96v-22.405l-27.703 5.85zm0 8.388h27.703v96.574h-27.703zm-29.69 8.168l-1.766-8.167h-23.84v96.574h27.593v-65.449c6.512-8.499 17.549-6.953 20.97-5.739v-25.385c-3.532-1.326-16.445-3.754-22.957 8.166zm-55.185-32.118l-26.93 5.739-.11 88.406c0 16.335 12.251 28.365 28.586 28.365 9.05 0 15.672-1.656 19.315-3.642v-22.405c-3.532 1.435-20.97 6.512-20.97-9.823V233.1h20.97v-23.509h-20.97zm-74.61 51.984c0-4.304 3.532-5.96 9.381-5.96 8.388 0 18.984 2.538 27.372 7.064v-25.937c-9.161-3.642-18.211-5.077-27.372-5.077-22.405 0-37.305 11.699-37.305 31.235 0 30.462 41.941 25.606 41.941 38.74 0 5.077-4.415 6.733-10.596 6.733-9.161 0-20.86-3.753-30.131-8.83v26.268c10.264 4.415 20.639 6.291 30.131 6.291 22.957 0 38.74-11.368 38.74-31.124-.11-32.891-42.161-27.041-42.161-39.403z" clip-rule="evenodd" fill="#fff" fill-rule="evenodd"/></svg>