<svg width="103" height="103" fill="none" xmlns="http://www.w3.org/2000/svg"><path d="M102.594 0c-8.906 0-16.087 7.533-16.087 16.875V65.75c0 2.044-.112 4.088-.335 6.248-.222 2.102-.779 4.029-1.67 5.78-.89 1.752-2.226 3.212-4.007 4.38-1.782 1.168-4.343 1.752-7.571 1.752-3.229 0-5.79-.584-7.571-1.752-1.781-1.168-3.117-2.627-4.008-4.38-.89-1.751-1.447-3.678-1.67-5.78a59.55 59.55 0 01-.334-6.248V15.357c-8.907 0-16.088 7.533-16.088 16.875v33.459c0 2.043-.111 4.087-.334 6.248-.222 2.102-.78 4.029-1.67 5.78-.89 1.752-2.226 3.212-4.008 4.38-1.781 1.168-4.342 1.751-7.57 1.751-3.23 0-5.79-.583-7.571-1.751-1.782-1.168-3.118-2.628-4.008-4.38-.89-1.751-1.448-3.678-1.67-5.78a59.55 59.55 0 01-.334-6.248V30.714C7.18 30.714 0 38.305 0 47.589v18.102c0 4.788.445 8.992 1.336 12.612.89 3.62 2.004 6.715 3.34 9.343 1.392 2.628 2.95 4.788 4.732 6.54a29.621 29.621 0 005.455 4.262c4.286 2.57 9.24 3.971 14.752 4.146 5.622-.175 10.577-1.576 14.919-4.146a27.599 27.599 0 005.4-4.262c.445-.467.89-.934 1.335-1.46.446.526.891.993 1.336 1.46a29.615 29.615 0 005.456 4.262c4.286 2.57 9.24 3.971 14.751 4.146 5.623-.175 10.577-1.576 14.92-4.146a27.599 27.599 0 005.399-4.262c1.781-1.752 3.34-3.912 4.731-6.54 1.392-2.628 2.506-5.722 3.341-9.343.835-3.62 1.224-7.766 1.224-12.612L102.594 0z" fill="#fff"/></svg>