<svg width="31" height="31" fill="none" xmlns="http://www.w3.org/2000/svg"><path fill-rule="evenodd" clip-rule="evenodd" d="M25.48 2.122c1.207.447 2.189 2.134 2.438 4.193.11.908.109 18.44-.001 19.36-.222 1.86-1.007 3.399-2.074 4.066-.284.177-.43.199-1.57.227L23.016 30l-2.438-.014-2.933-.001c-3.247-.001-3.276-.006-3.918-.572-.61-.537-1.091-1.394-1.399-2.49-.345-1.233-.339-1.005-.322-11.247.017-10.287-.013-9.456.386-10.8.426-1.434 1.392-2.611 2.32-2.826.084-.02 2.46-.041 5.282-.048 4.354-.01 5.183.009 5.485.12z" fill="#15141B"/><path fill-rule="evenodd" clip-rule="evenodd" d="M26.162.17c2.266.48 4.106 2.287 4.573 4.492.206.973.204 19.758-.002 20.744-.417 1.992-1.889 3.64-3.889 4.355-.532.19-.806.213-2.944.244l-2.357.034V18.406h3.89l.053-.262c.055-.266.533-3.973.533-4.13 0-.046-.996-.084-2.247-.084h-2.248L21.56 12c.033-1.75.056-1.964.242-2.318.36-.684.978-.933 2.264-.913.471.007 1.146-.012 1.5-.042l.643-.055V6.74c0-1.663-.021-1.94-.149-1.99-.082-.03-.992-.082-2.024-.113-2.27-.068-3.075.046-4.184.594a4.8 4.8 0 00-2.134 2.08c-.637 1.221-.676 1.45-.723 4.167l-.042 2.452h-3.886v4.476h3.904v11.618l-5.5-.001c-6.088-.002-6.141-.006-7.345-.613a5.813 5.813 0 01-2.622-2.668C.856 25.42.869 25.665.9 14.692.932 3.67.876 4.56 1.624 3.12 2.423 1.584 4.234.323 5.974.092c.156-.02 4.613-.043 9.903-.05C24.041.03 25.597.05 26.162.17z" fill="#FDFDFD"/></svg>