<svg width="31" height="31" fill="none" xmlns="http://www.w3.org/2000/svg"><path fill-rule="evenodd" clip-rule="evenodd" d="M23.414 2.03c.617.04 1.485.094 1.666.146.063.018.311.067.552.11.24.042.464.091.498.109.034.017.156.059.272.092.217.063.959.383 1.045.451.026.021.152.11.278.196.688.473 1.272 1.163 1.578 1.863.232.53.357.937.433 1.402.045.27.098.574.119.674.078.375.118 1.923.14 5.298.02 3.354-.021 6.206-.105 7.155-.061.693-.222 1.594-.324 1.82-.027.06-.088.216-.135.346-.103.282-.471.954-.631 1.152-.23.284-.968.95-1.237 1.117-.625.387-1.437.674-2.234.792a29.3 29.3 0 00-.71.11c-.433.078-1.296.113-5.496.132-4.657.023-7.503-.035-8.2-.169-.99-.19-1.29-.275-1.902-.538-.906-.389-1.885-1.312-2.25-2.122a3.779 3.779 0 00-.131-.269c-.096-.159-.305-.84-.377-1.226-.201-1.08-.225-1.67-.255-6.197-.026-3.835.012-6.477.1-7.146.086-.643.121-.864.195-1.22.044-.21.093-.399.11-.419.015-.02.067-.16.114-.31.23-.73.827-1.543 1.542-2.098.274-.213.855-.56.939-.56.024 0 .05-.014.057-.031.021-.053.872-.327 1.202-.388a3.47 3.47 0 00.39-.09c.146-.057 1.344-.15 2.332-.179 1.426-.042 9.102-.045 10.425-.003z" fill="#15141B"/><path fill-rule="evenodd" clip-rule="evenodd" d="M21.832.078c1.55.052 2.627.124 2.85.19.079.024.386.088.684.144.297.055.575.12.617.142.042.023.194.077.338.12.269.083 1.187.5 1.294.589.033.027.188.143.345.256.851.616 1.575 1.516 1.954 2.43.287.692.443 1.221.537 1.828.055.353.121.748.147.879.096.49.147 2.508.173 6.91.026 4.376-.025 8.095-.13 9.333-.075.905-.274 2.08-.4 2.375a7.85 7.85 0 00-.168.451c-.128.368-.584 1.244-.782 1.503-.284.37-1.199 1.24-1.532 1.456-.775.505-1.78.88-2.768 1.032-.353.055-.748.12-.879.145-.536.101-2.393.147-7.077.171-5.77.031-9.295-.045-10.158-.22-1.228-.248-1.6-.358-2.357-.7-1.122-.508-2.335-1.713-2.787-2.77a5.022 5.022 0 00-.163-.35c-.119-.207-.378-1.095-.467-1.599-.249-1.41-.279-2.178-.316-8.083-.03-5.002.015-8.448.125-9.322.106-.837.15-1.126.242-1.59.054-.275.115-.52.134-.547a2.79 2.79 0 00.143-.404c.285-.953 1.024-2.013 1.91-2.737.34-.278 1.06-.73 1.163-.73.03 0 .063-.018.071-.041C4.601.87 5.655.512 6.064.433c.209-.041.426-.094.483-.117C6.728.24 8.212.12 9.436.083 11.203.027 20.192.024 21.832.078zm3.064 3.105c-.697.206-1.315.838-1.496 1.531a2.194 2.194 0 001.673 2.712c.95.195 1.953-.284 2.347-1.122l.2-.427c.03-.064.053-.325.05-.594-.003-.403-.024-.528-.128-.78-.236-.57-.581-.929-1.152-1.198-.292-.137-.385-.157-.805-.17-.3-.01-.554.009-.689.048zM14.4 5.753c-.448.071-1.097.22-1.425.328-1.846.602-3.483 1.742-4.61 3.21-.09.118-.174.225-.188.238-.014.013-.118.17-.233.348-.584.907-.995 1.839-1.219 2.763-.063.261-.135.54-.16.618-.143.45-.208 2.345-.101 2.968.173 1.018.288 1.472.547 2.161 1.179 3.135 4.132 5.486 7.46 5.94.689.094 2.404.07 2.945-.043.471-.097 1.265-.306 1.378-.362a3.55 3.55 0 01.33-.125c.26-.085 1.128-.49 1.166-.543a.89.89 0 01.19-.117c.524-.265 1.408-.957 2.032-1.591.846-.861 1.754-2.32 2.057-3.307.055-.18.116-.348.136-.374.047-.062.125-.383.273-1.116.141-.699.203-2.165.114-2.731a14.59 14.59 0 00-.39-1.876.265.265 0 00-.042-.095 2.863 2.863 0 01-.138-.357c-.25-.727-.76-1.627-1.372-2.42-.43-.558-.775-.91-1.483-1.517-.409-.35-1.214-.864-1.757-1.12-.17-.08-.362-.175-.428-.21-.224-.122-1.259-.448-1.662-.525a7.172 7.172 0 01-.57-.128c-.263-.081-2.368-.095-2.85-.018zm2.518 3.283c1.746.294 3.4 1.518 4.268 3.159.115.215.225.447.246.514.02.066.09.27.155.454.288.809.364 2.058.185 3.016-.276 1.476-1.123 2.821-2.359 3.75-.237.179-.56.386-.715.46-.156.075-.291.15-.3.168-.007.018-.189.09-.403.159a7.8 7.8 0 00-.531.189c-.23.103-1.11.213-1.692.213-1.426-.001-2.776-.473-3.81-1.331-.528-.439-.885-.82-1.23-1.313-.288-.414-.666-1.195-.753-1.56a1.244 1.244 0 00-.096-.287c-.022-.028-.074-.263-.117-.523-.092-.559-.068-1.952.041-2.419.339-1.447 1.2-2.754 2.36-3.581.559-.398.97-.622 1.402-.763.183-.06.354-.126.38-.147.027-.02.219-.07.428-.11l.617-.119c.298-.059 1.39-.019 1.924.071z" fill="#FDFDFD"/></svg>