<svg width="30" height="31" fill="none" xmlns="http://www.w3.org/2000/svg"><path fill-rule="evenodd" clip-rule="evenodd" d="M24.843 4.043c.009.023.07.04.135.04.066 0 .12.014.12.03 0 .017.048.04.106.052.058.011.106.034.106.05 0 .017.032.03.07.03.04 0 .07.015.07.032 0 .018.024.033.054.033.029 0 .052.013.052.03 0 .016.035.04.077.052a.506.506 0 01.16.1c.046.041.099.076.118.076.053 0 .42.343.42.392 0 .025.04.072.088.105.049.033.088.086.088.117 0 .031.021.064.048.074.054.019.198.258.198.33 0 .026.016.047.036.047.02 0 .035.036.035.08 0 .045.015.082.033.082.019 0 .045.087.058.193.013.107.038.194.054.194.018 0 .031 3.83.031 8.811 0 4.982-.013 8.812-.03 8.812s-.042.087-.055.194c-.013.106-.04.194-.058.194-.018 0-.033.036-.033.08 0 .045-.015.08-.034.08-.018 0-.044.052-.056.114-.013.062-.038.113-.055.113s-.031.022-.031.048c0 .027-.015.049-.033.049-.018 0-.044.032-.058.072a.488.488 0 01-.125.158c-.056.047-.101.101-.101.12 0 .044-.344.36-.392.36-.02 0-.08.041-.131.092a.53.53 0 01-.173.115c-.043.013-.079.037-.079.053 0 .017-.023.03-.052.03-.03 0-.053.013-.053.029s-.056.038-.123.05c-.068.011-.124.031-.124.044 0 .042-.19.1-.396.123-.111.012-.202.034-.202.05 0 .015-4.251.027-9.613.027-5.66 0-9.612-.012-9.612-.029 0-.016-.11-.04-.246-.052-.136-.012-.247-.035-.247-.051 0-.016-.024-.03-.053-.03-.029 0-.052-.014-.052-.032 0-.017-.024-.032-.052-.032-.078 0-.34-.132-.36-.182-.01-.024-.049-.044-.086-.044-.037 0-.077-.022-.088-.048a.084.084 0 00-.071-.049c-.062 0-.54-.43-.54-.485 0-.022-.03-.063-.066-.092a.327.327 0 01-.09-.125c-.014-.04-.04-.072-.058-.072-.018 0-.033-.022-.033-.049 0-.026-.016-.048-.035-.048-.02 0-.035-.03-.035-.065s-.015-.064-.033-.064c-.018 0-.043-.044-.055-.097-.013-.053-.038-.097-.056-.097-.018 0-.032-.033-.032-.074a.178.178 0 00-.044-.115c-.065-.06-.065-18.149 0-18.169.024-.007.044-.048.044-.091s.015-.078.035-.078c.02 0 .035-.014.035-.032 0-.055.12-.29.15-.29.014 0 .026-.024.026-.052 0-.079.113-.237.184-.258.034-.01.062-.04.062-.068 0-.064.47-.494.54-.494.03 0 .064-.03.077-.065a.103.103 0 01.091-.064c.038 0 .078-.022.09-.049.01-.026.05-.048.087-.048.036 0 .066-.011.066-.025 0-.026.257-.137.317-.137.02 0 .035-.014.035-.032 0-.018.056-.032.123-.032.068 0 .124-.014.124-.03 0-.017.06-.037.132-.044C5.339 4.003 9.77 4 15.114 4c7.738.003 9.718.011 9.73.043z" fill="#15141B"/><path fill-rule="evenodd" clip-rule="evenodd" d="M27.304.098c.01.03.086.055.169.055.083 0 .15.019.15.04 0 .023.06.054.132.07.073.016.132.048.132.07 0 .022.04.04.088.04.049 0 .088.02.088.044 0 .025.03.044.067.044.036 0 .066.019.066.042 0 .022.042.054.095.07a.627.627 0 01.2.136c.058.057.124.105.148.105.066 0 .525.467.525.535 0 .033.05.097.11.143.06.045.11.117.11.16 0 .042.027.087.06.1.068.025.248.352.248.45 0 .035.02.064.044.064.024 0 .044.05.044.11s.019.11.042.11c.023 0 .055.119.072.264.016.145.047.264.068.264.021 0 .038 5.223.038 12.016s-.017 12.016-.038 12.016c-.021 0-.052.119-.069.264-.016.145-.048.264-.071.264-.023 0-.042.05-.042.11s-.019.11-.042.11c-.023 0-.055.07-.071.154-.016.085-.047.154-.068.154-.021 0-.04.03-.04.067 0 .036-.018.066-.04.066-.023 0-.055.044-.072.098a.66.66 0 01-.157.215c-.07.065-.126.139-.126.164 0 .06-.43.49-.49.49-.026 0-.1.057-.165.127a.663.663 0 01-.215.157c-.054.017-.099.05-.099.072 0 .022-.03.04-.066.04-.036 0-.066.018-.066.04 0 .021-.069.052-.154.068-.084.016-.154.043-.154.06 0 .057-.238.138-.495.168-.139.016-.253.046-.253.067 0 .021-5.313.038-12.015.038-7.076 0-12.016-.016-12.016-.04 0-.021-.138-.053-.308-.07-.17-.017-.308-.049-.308-.07 0-.022-.03-.04-.066-.04-.036 0-.066-.02-.066-.044 0-.024-.029-.044-.064-.044-.098 0-.424-.18-.45-.249-.013-.032-.061-.06-.108-.06s-.096-.029-.11-.065c-.014-.037-.054-.066-.089-.066-.077 0-.675-.587-.675-.662 0-.03-.037-.086-.082-.125a.445.445 0 01-.113-.17c-.017-.055-.05-.1-.072-.1-.023 0-.041-.03-.041-.066 0-.036-.02-.066-.044-.066-.024 0-.044-.04-.044-.088 0-.048-.018-.088-.04-.088-.023 0-.054-.059-.07-.132-.016-.072-.048-.132-.07-.132-.022 0-.04-.045-.04-.1a.253.253 0 00-.055-.157C-.02 27.324-.02 2.656.06 2.629c.03-.01.055-.066.055-.124 0-.059.02-.107.044-.107.024 0 .044-.02.044-.044 0-.075.15-.396.186-.396.019 0 .034-.032.034-.07 0-.107.141-.323.23-.351.043-.014.078-.056.078-.093 0-.088.586-.674.675-.674.037 0 .08-.04.095-.088a.13.13 0 01.114-.088c.048 0 .098-.03.112-.066.014-.037.063-.067.109-.067S1.92.446 1.92.428c0-.035.321-.187.397-.187.024 0 .043-.02.043-.044 0-.024.07-.044.154-.044.085 0 .154-.018.154-.041 0-.023.075-.05.165-.059.091-.01 5.63-.016 12.31-.014C24.814.043 27.29.055 27.303.1zM6.927 5.024c-.115.011-.21.039-.21.061 0 .023-.049.042-.11.042-.06 0-.11.019-.11.042 0 .023-.069.055-.154.07-.084.017-.154.047-.154.069 0 .021-.022.04-.05.04-.027 0-.095.049-.152.11-.056.06-.12.11-.144.11-.056 0-.314.257-.314.313 0 .023-.05.088-.11.144-.06.057-.11.125-.11.152 0 .028-.017.05-.039.05-.021 0-.052.07-.068.154-.016.085-.048.154-.07.154-.024 0-.043.048-.043.107 0 .058-.024.114-.054.124-.04.013-.054.2-.054.694 0 .494.014.68.054.693.03.01.054.066.054.125 0 .058.019.106.042.106.023 0 .055.07.071.154.016.085.047.154.068.154.022 0 .04.02.04.046 0 .025.049.1.11.165.06.065.11.133.11.152 0 .054.327.366.477.455.076.045.138.097.138.116 0 .019.03.034.066.034.037 0 .066.019.066.04 0 .023.08.054.176.07.097.017.187.048.2.07.015.022.074.04.133.04.06 0 .108.02.108.045 0 .026.198.044.506.044s.506-.018.506-.044c0-.025.07-.044.154-.044.085 0 .154-.02.154-.044 0-.025.05-.044.111-.044.062 0 .123-.03.137-.067.014-.036.063-.066.109-.066s.083-.02.083-.044c0-.024.029-.044.064-.044s.114-.05.174-.11c.06-.06.125-.11.143-.11.048 0 .28-.23.28-.278 0-.023.036-.073.081-.113a.446.446 0 00.113-.17c.017-.054.05-.099.072-.099.023 0 .041-.04.041-.088 0-.048.02-.088.044-.088.024 0 .056-.08.071-.176.016-.097.046-.176.067-.176.021 0 .038-.1.038-.22 0-.121.02-.22.044-.22.025 0 .044-.108.044-.24 0-.131-.02-.251-.044-.266-.024-.015-.044-.125-.044-.245s-.017-.217-.038-.217c-.021 0-.051-.08-.067-.177-.015-.096-.047-.176-.071-.176-.024 0-.044-.034-.044-.077s-.04-.102-.088-.132c-.048-.03-.088-.077-.088-.102 0-.072-.577-.63-.726-.703a.955.955 0 01-.19-.119.21.21 0 00-.121-.055c-.035 0-.063-.02-.063-.044 0-.024-.048-.044-.106-.044-.059 0-.113-.02-.121-.043-.017-.047-.866-.09-1.192-.06zm12.598 6.265c0 .024-.099.044-.22.044s-.22.017-.22.038c0 .021-.119.052-.264.069-.145.016-.264.048-.264.071 0 .023-.05.042-.11.042s-.11.02-.11.044c0 .024-.04.044-.088.044-.049 0-.088.018-.088.04 0 .023-.06.054-.132.07-.073.016-.132.047-.132.07 0 .022-.04.04-.088.04-.049 0-.088.018-.088.04 0 .023-.06.055-.135.07a.332.332 0 00-.186.114c-.029.046-.078.084-.109.084-.03 0-.123.07-.206.154-.082.085-.169.154-.193.154-.062 0-.448.383-.448.445 0 .067-.248.305-.282.27-.014-.013-.026-.349-.026-.744v-.719h-4.005v13.337h4.005v-3.761c0-2.069.017-3.771.038-3.784.02-.013.05-.176.066-.364.016-.187.048-.36.072-.384.024-.024.044-.09.044-.145 0-.056.018-.101.04-.101.023 0 .054-.06.07-.132.016-.073.047-.132.07-.132.022 0 .04-.04.04-.088 0-.049.02-.088.044-.088.024 0 .044-.025.044-.056 0-.089.524-.605.614-.605.026 0 .047-.015.047-.033 0-.036.32-.187.396-.187.024 0 .044-.02.044-.044 0-.024.069-.044.154-.044.084 0 .154-.02.154-.044 0-.027.198-.044.506-.044s.506.017.506.044c0 .024.07.044.154.044.085 0 .154.018.154.04 0 .023.06.054.132.07.073.016.132.047.132.07 0 .022.04.04.088.04.049 0 .088.016.088.034 0 .019.07.071.153.117.084.045.166.121.181.17a.803.803 0 00.158.222.663.663 0 01.155.26c.013.067.042.122.063.122.021 0 .038.05.038.11s.019.11.041.11c.023 0 .055.109.071.242.017.134.048.254.07.267.021.013.038.122.038.241 0 .12.02.218.045.218.029 0 .044 1.298.044 3.807v3.808h4.137V20.6c0-2.456-.017-4.476-.038-4.488-.02-.013-.05-.267-.066-.564-.016-.297-.048-.547-.073-.556-.024-.008-.043-.07-.043-.14s-.018-.136-.04-.15c-.02-.013-.052-.133-.069-.266-.016-.134-.048-.243-.07-.243-.023 0-.041-.048-.041-.108 0-.059-.019-.118-.041-.132-.023-.014-.054-.084-.07-.157-.016-.072-.047-.131-.069-.131-.022 0-.04-.04-.04-.088 0-.049-.02-.088-.045-.088-.024 0-.044-.03-.044-.066 0-.037-.019-.066-.043-.066-.023 0-.055-.05-.07-.11-.016-.06-.046-.11-.067-.11-.022 0-.04-.031-.04-.069 0-.037-.05-.114-.11-.17-.06-.056-.11-.121-.11-.145 0-.054-.4-.453-.455-.453-.023 0-.087-.05-.143-.11-.056-.06-.132-.11-.17-.11-.037 0-.068-.017-.068-.039 0-.021-.035-.05-.077-.064a.927.927 0 01-.275-.165.455.455 0 00-.154-.058c-.177-.041-.374-.129-.374-.165 0-.015-.1-.042-.22-.059-.121-.017-.22-.048-.22-.07 0-.022-.09-.04-.198-.04-.11 0-.198-.02-.198-.044 0-.024-.1-.044-.22-.044-.121 0-.22-.02-.22-.044 0-.027-.25-.044-.66-.044-.412 0-.66.017-.66.044zM5.397 18.397v6.669h4.137V11.729H5.397v6.668z" fill="#FDFDFD"/><path fill-rule="evenodd" clip-rule="evenodd" d="M27.304.098c.01.03.086.055.169.055.083 0 .15.019.15.04 0 .023.06.054.132.07.073.016.132.048.132.07 0 .022.04.04.088.04.049 0 .088.02.088.044 0 .025.03.044.067.044.036 0 .066.019.066.042 0 .022.042.054.095.07a.627.627 0 01.2.136c.058.057.124.105.148.105.066 0 .525.467.525.535 0 .033.05.097.11.143.06.045.11.117.11.16 0 .042.027.087.06.1.068.025.248.352.248.45 0 .035.02.064.044.064.024 0 .044.05.044.11s.019.11.042.11c.023 0 .055.119.072.264.016.145.047.264.068.264.021 0 .038 5.223.038 12.016s-.017 12.016-.038 12.016c-.021 0-.052.119-.069.264-.016.145-.048.264-.071.264-.023 0-.042.05-.042.11s-.019.11-.042.11c-.023 0-.055.07-.071.154-.016.085-.047.154-.068.154-.021 0-.04.03-.04.067 0 .036-.018.066-.04.066-.023 0-.055.044-.072.098a.66.66 0 01-.157.215c-.07.065-.126.139-.126.164 0 .06-.43.49-.49.49-.026 0-.1.057-.165.127a.663.663 0 01-.215.157c-.054.017-.099.05-.099.072 0 .022-.03.04-.066.04-.036 0-.066.018-.066.04 0 .021-.069.052-.154.068-.084.016-.154.043-.154.06 0 .057-.238.138-.495.168-.139.016-.253.046-.253.067 0 .021-5.313.038-12.015.038-7.076 0-12.016-.016-12.016-.04 0-.021-.138-.053-.308-.07-.17-.017-.308-.049-.308-.07 0-.022-.03-.04-.066-.04-.036 0-.066-.02-.066-.044 0-.024-.029-.044-.064-.044-.098 0-.424-.18-.45-.249-.013-.032-.061-.06-.108-.06s-.096-.029-.11-.065c-.014-.037-.054-.066-.089-.066-.077 0-.675-.587-.675-.662 0-.03-.037-.086-.082-.125a.445.445 0 01-.113-.17c-.017-.055-.05-.1-.072-.1-.023 0-.041-.03-.041-.066 0-.036-.02-.066-.044-.066-.024 0-.044-.04-.044-.088 0-.048-.018-.088-.04-.088-.023 0-.054-.059-.07-.132-.016-.072-.048-.132-.07-.132-.022 0-.04-.045-.04-.1a.253.253 0 00-.055-.157C-.02 27.324-.02 2.656.06 2.629c.03-.01.055-.066.055-.124 0-.059.02-.107.044-.107.024 0 .044-.02.044-.044 0-.075.15-.396.186-.396.019 0 .034-.032.034-.07 0-.107.141-.323.23-.351.043-.014.078-.056.078-.093 0-.088.586-.674.675-.674.037 0 .08-.04.095-.088a.13.13 0 01.114-.088c.048 0 .098-.03.112-.066.014-.037.063-.067.109-.067S1.92.446 1.92.428c0-.035.321-.187.397-.187.024 0 .043-.02.043-.044 0-.024.07-.044.154-.044.085 0 .154-.018.154-.041 0-.023.075-.05.165-.059.091-.01 5.63-.016 12.31-.014C24.814.043 27.29.055 27.303.1zM6.927 5.024c-.115.011-.21.039-.21.061 0 .023-.049.042-.11.042-.06 0-.11.019-.11.042 0 .023-.069.055-.154.07-.084.017-.154.047-.154.069 0 .021-.022.04-.05.04-.027 0-.095.049-.152.11-.056.06-.12.11-.144.11-.056 0-.314.257-.314.313 0 .023-.05.088-.11.144-.06.057-.11.125-.11.152 0 .028-.017.05-.039.05-.021 0-.052.07-.068.154-.016.085-.048.154-.07.154-.024 0-.043.048-.043.107 0 .058-.024.114-.054.124-.04.013-.054.2-.054.694 0 .494.014.68.054.693.03.01.054.066.054.125 0 .058.019.106.042.106.023 0 .055.07.071.154.016.085.047.154.068.154.022 0 .04.02.04.046 0 .025.049.1.11.165.06.065.11.133.11.152 0 .054.327.366.477.455.076.045.138.097.138.116 0 .019.03.034.066.034.037 0 .066.019.066.04 0 .023.08.054.176.07.097.017.187.048.2.07.015.022.074.04.133.04.06 0 .108.02.108.045 0 .026.198.044.506.044s.506-.018.506-.044c0-.025.07-.044.154-.044.085 0 .154-.02.154-.044 0-.025.05-.044.111-.044.062 0 .123-.03.137-.067.014-.036.063-.066.109-.066s.083-.02.083-.044c0-.024.029-.044.064-.044s.114-.05.174-.11c.06-.06.125-.11.143-.11.048 0 .28-.23.28-.278 0-.023.036-.073.081-.113a.446.446 0 00.113-.17c.017-.054.05-.099.072-.099.023 0 .041-.04.041-.088 0-.048.02-.088.044-.088.024 0 .056-.08.071-.176.016-.097.046-.176.067-.176.021 0 .038-.1.038-.22 0-.121.02-.22.044-.22.025 0 .044-.108.044-.24 0-.131-.02-.251-.044-.266-.024-.015-.044-.125-.044-.245s-.017-.217-.038-.217c-.021 0-.051-.08-.067-.177-.015-.096-.047-.176-.071-.176-.024 0-.044-.034-.044-.077s-.04-.102-.088-.132c-.048-.03-.088-.077-.088-.102 0-.072-.577-.63-.726-.703a.955.955 0 01-.19-.119.21.21 0 00-.121-.055c-.035 0-.063-.02-.063-.044 0-.024-.048-.044-.106-.044-.059 0-.113-.02-.121-.043-.017-.047-.866-.09-1.192-.06zm12.598 6.265c0 .024-.099.044-.22.044s-.22.017-.22.038c0 .021-.119.052-.264.069-.145.016-.264.048-.264.071 0 .023-.05.042-.11.042s-.11.02-.11.044c0 .024-.04.044-.088.044-.049 0-.088.018-.088.04 0 .023-.06.054-.132.07-.073.016-.132.047-.132.07 0 .022-.04.04-.088.04-.049 0-.088.018-.088.04 0 .023-.06.055-.135.07a.332.332 0 00-.186.114c-.029.046-.078.084-.109.084-.03 0-.123.07-.206.154-.082.085-.169.154-.193.154-.062 0-.448.383-.448.445 0 .067-.248.305-.282.27-.014-.013-.026-.349-.026-.744v-.719h-4.005v13.337h4.005v-3.761c0-2.069.017-3.771.038-3.784.02-.013.05-.176.066-.364.016-.187.048-.36.072-.384.024-.024.044-.09.044-.145 0-.056.018-.101.04-.101.023 0 .054-.06.07-.132.016-.073.047-.132.07-.132.022 0 .04-.04.04-.088 0-.049.02-.088.044-.088.024 0 .044-.025.044-.056 0-.089.524-.605.614-.605.026 0 .047-.015.047-.033 0-.036.32-.187.396-.187.024 0 .044-.02.044-.044 0-.024.069-.044.154-.044.084 0 .154-.02.154-.044 0-.027.198-.044.506-.044s.506.017.506.044c0 .024.07.044.154.044.085 0 .154.018.154.04 0 .023.06.054.132.07.073.016.132.047.132.07 0 .022.04.04.088.04.049 0 .088.016.088.034 0 .019.07.071.153.117.084.045.166.121.181.17a.803.803 0 00.158.222.663.663 0 01.155.26c.013.067.042.122.063.122.021 0 .038.05.038.11s.019.11.041.11c.023 0 .055.109.071.242.017.134.048.254.07.267.021.013.038.122.038.241 0 .12.02.218.045.218.029 0 .044 1.298.044 3.807v3.808h4.137V20.6c0-2.456-.017-4.476-.038-4.488-.02-.013-.05-.267-.066-.564-.016-.297-.048-.547-.073-.556-.024-.008-.043-.07-.043-.14s-.018-.136-.04-.15c-.02-.013-.052-.133-.069-.266-.016-.134-.048-.243-.07-.243-.023 0-.041-.048-.041-.108 0-.059-.019-.118-.041-.132-.023-.014-.054-.084-.07-.157-.016-.072-.047-.131-.069-.131-.022 0-.04-.04-.04-.088 0-.049-.02-.088-.045-.088-.024 0-.044-.03-.044-.066 0-.037-.019-.066-.043-.066-.023 0-.055-.05-.07-.11-.016-.06-.046-.11-.067-.11-.022 0-.04-.031-.04-.069 0-.037-.05-.114-.11-.17-.06-.056-.11-.121-.11-.145 0-.054-.4-.453-.455-.453-.023 0-.087-.05-.143-.11-.056-.06-.132-.11-.17-.11-.037 0-.068-.017-.068-.039 0-.021-.035-.05-.077-.064a.927.927 0 01-.275-.165.455.455 0 00-.154-.058c-.177-.041-.374-.129-.374-.165 0-.015-.1-.042-.22-.059-.121-.017-.22-.048-.22-.07 0-.022-.09-.04-.198-.04-.11 0-.198-.02-.198-.044 0-.024-.1-.044-.22-.044-.121 0-.22-.02-.22-.044 0-.027-.25-.044-.66-.044-.412 0-.66.017-.66.044zM5.397 18.397v6.669h4.137V11.729H5.397v6.668z" fill="#FDFDFD"/></svg>