<svg width="30" height="31" fill="none" xmlns="http://www.w3.org/2000/svg"><path fill-rule="evenodd" clip-rule="evenodd" d="M7.583 6.027a4.527 4.527 0 00-1.87.626 4.86 4.86 0 00-1.042.894 2.814 2.814 0 00-.607 1.17L4 8.953v12.111l.062.23c.184.672.553 1.214 1.168 1.714a4.3 4.3 0 001.76.87c.565.133.104.126 8.183.119h7.31l.291-.06a4.404 4.404 0 001.648-.673c.832-.555 1.345-1.256 1.53-2.091.045-.199.048-.644.048-6.157 0-5.588-.003-5.957-.05-6.169-.202-.93-.831-1.71-1.842-2.28a4.546 4.546 0 00-1.464-.504l-.3-.052-7.199-.01c-5.912-.003-7.347.002-7.562.026z" fill="#15141B"/><path fill-rule="evenodd" clip-rule="evenodd" d="M4.864.084a5.418 5.418 0 00-2.537 1.043C1.874 1.46 1.23 2.139.91 2.617c-.436.655-.65 1.16-.824 1.95L0 4.961v20.185l.085.382c.248 1.121.75 2.025 1.585 2.858.717.716 1.503 1.192 2.39 1.45.767.221.14.21 11.11.198l10.056-.012.394-.098a5.43 5.43 0 002.237-1.123c1.13-.924 1.827-2.093 2.079-3.485.06-.332.064-1.073.064-10.262 0-9.314-.004-9.928-.067-10.28-.275-1.553-1.13-2.85-2.502-3.802a5.456 5.456 0 00-1.987-.84l-.406-.086L15.132.04C7.105.036 5.157.044 4.864.084zm14.873 7.498c.747.166 1.337.466 1.854.943.123.114.258.207.299.207.13 0 .79-.184 1.169-.325.199-.074.58-.243.846-.376.266-.132.489-.236.495-.23.022.022-.266.685-.393.906-.283.493-.765.999-1.19 1.247a.675.675 0 00-.159.11c.006.006.18-.013.387-.043a7.35 7.35 0 001.542-.407c.18-.074.335-.129.342-.121.045.045-.63.887-.988 1.232-.241.233-.72.609-.885.693l-.105.055v.48c0 2.136-.57 4.17-1.71 6.104-.788 1.335-2.37 3.009-3.61 3.817-1.313.856-2.933 1.458-4.642 1.726-.707.11-2.754.12-3.421.015-.975-.152-1.66-.327-2.482-.632-.515-.191-1.625-.719-1.98-.941l-.195-.122.735.013c.404.007.923-.006 1.153-.03a8.106 8.106 0 003.622-1.313c.252-.166.466-.316.478-.334.01-.018-.129-.043-.31-.056-1.045-.074-2.13-.713-2.87-1.689-.207-.273-.593-.988-.594-1.1 0-.031.122-.037.453-.022.408.019 1.036-.033 1.14-.095.019-.01-.091-.051-.244-.09-.359-.092-.962-.388-1.277-.627a4.665 4.665 0 01-1.335-1.67 3.432 3.432 0 01-.344-1.313c-.021-.355-.019-.371.05-.345.61.237 1.235.406 1.669.453l.207.022-.132-.103a7.426 7.426 0 01-.39-.348C6.1 12.49 5.72 11.56 5.72 10.326c0-.731.13-1.303.434-1.906l.11-.217.562.58c.618.636 1.098 1.05 1.74 1.5 1.816 1.273 3.782 1.992 5.871 2.146l.338.025-.012-.664c-.018-.92.069-1.369.391-2.027.564-1.15 1.658-1.969 2.957-2.216.347-.065 1.262-.046 1.627.035z" fill="#FDFDFD"/></svg>