<svg width="30" height="30" fill="none" xmlns="http://www.w3.org/2000/svg"><g clip-path="url(#clip0_467_9194)"><path d="M27.785 0H2.216C.992 0 0 .962 0 2.15v25.7C0 29.038.992 30 2.216 30h25.569C29.009 30 30 29.036 30 27.85V2.15C30 .961 29.009 0 27.785 0z" fill="#FDFDFD"/><path d="M22.015 17.444c-1.18 0-2.286-.5-3.291-1.315l.244-1.15.011-.041c.219-1.224.91-3.28 3.036-3.28 1.595 0 2.892 1.3 2.892 2.896a2.903 2.903 0 01-2.892 2.89zm0-8.72c-2.717 0-4.823 1.768-5.678 4.674-1.308-1.964-2.297-4.322-2.877-6.308h-2.923v7.617a2.729 2.729 0 01-2.723 2.725 2.728 2.728 0 01-2.721-2.725V7.09H2.168v7.617c-.01 3.12 2.526 5.681 5.642 5.681 3.115 0 5.652-2.56 5.652-5.68v-1.279c.568 1.187 1.264 2.385 2.11 3.45l-1.791 8.433h2.994l1.297-6.117c1.138.73 2.446 1.187 3.946 1.187 3.206 0 5.816-2.63 5.816-5.84-.002-3.204-2.612-5.818-5.819-5.818z" fill="#15141B"/></g><defs><clipPath id="clip0_467_9194"><path fill="#fff" d="M0 0h30v30H0z"/></clipPath></defs></svg>